<?xml version="1.0" encoding="iso-8859-1"?>
<!-- Generator: Adobe Illustrator 19.0.0, SVG Export Plug-In . SVG Version: 6.00 Build 0)  -->
<svg version="1.1" id="Capa_1" xmlns="http://www.w3.org/2000/svg" xmlns:xlink="http://www.w3.org/1999/xlink" x="0px" y="0px"
	 viewBox="0 0 512 512" style="enable-background:new 0 0 512 512;" xml:space="preserve">
<g>
	<g>
		<path fill="yellow" d="M111.136,231.238C49.856,231.238,0,281.094,0,342.374C0,403.659,49.856,453.51,111.136,453.51
			s111.136-49.851,111.136-111.136C222.272,281.094,172.416,231.238,111.136,231.238z M111.136,420.341
			c-42.989,0-77.961-34.977-77.961-77.967s34.972-77.961,77.961-77.961s77.961,34.972,77.961,77.961
			C189.097,385.369,154.125,420.341,111.136,420.341z"/>
	</g>
</g>
<g>
	<g>
		<path fill="yellow" d="M167.594,59.525c-18.263-3.163-36.719,0.979-51.958,11.683c-15.106,10.599-25.202,26.335-28.481,44.36L5.723,308.84
			c-3.555,8.449,0.404,18.169,8.847,21.73c8.449,3.561,18.174-0.409,21.73-8.847l82.937-196.838c0.901-2.145,1.321-4.39,1.299-6.602
			c4.938-17.782,22.78-29.293,41.402-26.07c9.521,1.648,17.854,6.956,23.466,14.956c5.618,8.006,7.802,17.682,6.148,27.242
			c-0.144,0.851-0.227,1.714-0.238,2.577l-3.318,218.402c-0.138,9.162,7.171,16.704,16.333,16.842c0.083,0,0.166,0,0.254,0
			c9.04,0,16.444-7.26,16.582-16.333l3.295-217.191C230.179,101.336,204.927,65.983,167.594,59.525z"/>
	</g>
</g>
<g>
	<g>
		<rect fill="yellow" x="207.343" y="222.386" width="96.76" height="33.175"/>
	</g>
</g>
<g>
	<g>
		<rect fill="yellow" x="207.343" y="279.895" width="96.76" height="33.175"/>
	</g>
</g>
<g>
	<g>
		<path fill="yellow" d="M400.864,231.233c-61.28,0-111.136,49.856-111.136,111.136c0,61.285,49.856,111.142,111.136,111.142
			S512,403.659,512,342.369C512,281.089,462.144,231.233,400.864,231.233z M400.864,420.341c-42.989,0-77.961-34.977-77.961-77.967
			s34.977-77.961,77.961-77.961c42.984,0,77.961,34.972,77.961,77.961C478.825,385.369,443.853,420.341,400.864,420.341z"/>
	</g>
</g>
<g>
	<g>
		<path fill="yellow" d="M506.277,308.84l-81.428-193.244c-6.812-37.477-42.796-62.585-80.449-56.071c-18.274,3.163-34.248,13.314-44.963,28.586
			c-10.422,14.862-14.63,32.777-11.899,50.597l3.295,217.191c0.138,9.073,7.536,16.333,16.582,16.333c0.083,0,0.171,0,0.265,0.006
			c9.156-0.138,16.466-7.68,16.333-16.842l-3.318-218.402c-0.017-0.863-0.1-1.725-0.243-2.577
			c-1.659-9.565,0.525-19.241,6.143-27.248c5.612-8.001,13.945-13.309,23.466-14.956c18.583-3.212,36.454,8.283,41.402,26.053
			c-0.028,2.217,0.393,4.468,1.299,6.618l82.937,196.838c3.561,8.449,13.287,12.396,21.73,8.847
			C505.874,327.009,509.838,317.283,506.277,308.84z"/>
	</g>
</g>
<g>
	<g>
		<rect  fill ="yellow" x="207.343" y="120.655" width="97.313" height="33.175"/>
	</g>
</g>
<g>
</g>
<g>
</g>
<g>
</g>
<g>
</g>
<g>
</g>
<g>
</g>
<g>
</g>
<g>
</g>
<g>
</g>
<g>
</g>
<g>
</g>
<g>
</g>
<g>
</g>
<g>
</g>
<g>
</g>
</svg>
